<?xml version="1.0" encoding="UTF-8" standalone="no"?>
<svg
   xmlns:dc="http://purl.org/dc/elements/1.1/"
   xmlns:cc="http://creativecommons.org/ns#"
   xmlns:rdf="http://www.w3.org/1999/02/22-rdf-syntax-ns#"
   xmlns:svg="http://www.w3.org/2000/svg"
   xmlns="http://www.w3.org/2000/svg"
   viewBox="0 0 188.97333 631.28003"
   height="631.28003"
   width="188.97333"
   xml:space="preserve"
   id="svg2"
   version="1.1"><metadata
     id="metadata8"><rdf:RDF><cc:Work
         rdf:about=""><dc:format>image/svg+xml</dc:format><dc:type
           rdf:resource="http://purl.org/dc/dcmitype/StillImage" /></cc:Work></rdf:RDF></metadata><defs
     id="defs6" /><g
     transform="matrix(1.3333333,0,0,-1.3333333,0,631.28)"
     id="g10"><g
       transform="scale(0.1)"
       id="g12"><path
         id="path14"
         style="fill:#231f20;fill-opacity:1;fill-rule:nonzero;stroke:none"
         d="M 0,0 H 1417.32 V 1417.33 H 0 V 0" /><path
         id="path16"
         style="fill:#231f20;fill-opacity:1;fill-rule:nonzero;stroke:none"
         d="m 1097.82,2920.28 c -55.23,38.01 -121.84,67.97 -194.953,85.89 -18.078,4.27 -36.25,8.3 -55.031,11.02 -0.691,0.14 -1.492,0.15 -2.195,0.27 -26.68,-19.69 -51.231,-41.44 -73.371,-64.79 24.523,3.57 49.503,5.87 75.05,6.77 89.168,3.29 173.96,-11.33 250.5,-39.16" /><path
         id="path18"
         style="fill:#231f20;fill-opacity:1;fill-rule:nonzero;stroke:none"
         d="m 749.508,2741.97 c 34.687,25.65 72.656,48.54 113.601,67.89 100.938,47.63 206.601,67.75 306.321,63.39 -85.84,37.89 -184.348,57.84 -288.516,54.05 -51.32,-1.85 -100.898,-9.42 -147.91,-21.85 -23.391,-31.46 -42.754,-65.3 -57.461,-100.91 22.645,-22.26 47.344,-43.26 73.965,-62.57" /><path
         id="path20"
         style="fill:#231f20;fill-opacity:1;fill-rule:nonzero;stroke:none"
         d="m 642.914,2642.67 c 27.375,32.17 58.789,62.01 93.606,89.16 -24.063,17.24 -46.555,35.84 -67.461,55.45 -16.77,-45.87 -25.989,-94.4 -26.145,-144.61" /><path
         id="path22"
         style="fill:#231f20;fill-opacity:1;fill-rule:nonzero;stroke:none"
         d="m 668.578,2828.75 c 11.602,24.05 24.426,47.04 38.301,68.96 -29.578,-9.12 -58.145,-20.04 -85.301,-32.93 12.879,-16.42 26.817,-32.3 41.621,-47.68 1.766,3.92 3.524,7.78 5.379,11.65" /><path
         id="path24"
         style="fill:#231f20;fill-opacity:1;fill-rule:nonzero;stroke:none"
         d="m 1251.55,2434.27 c -1.24,0 -2.48,-0.05 -3.74,-0.05 -51.23,0 -88.37,32.76 -88.37,77.96 v 1.02 c 0,43.2 37.22,77.05 84.74,77.05 2.54,0 5.02,-0.1 7.37,-0.22 v 51.91 c -2.21,0.1 -4.49,0.1 -6.77,0.1 -93.05,0 -163.29,-55.76 -163.29,-129.86 v -0.96 c 0,-72.23 71.18,-128.87 162.09,-128.87 2.76,0 5.32,0.08 7.97,0.13 v 51.79" /><path
         id="path26"
         style="fill:#231f20;fill-opacity:1;fill-rule:nonzero;stroke:none"
         d="m 310.57,2543.06 c -54.922,11.72 -62.656,17.34 -62.656,34.7 v 0.81 c 0,12.8 14.082,22.98 40.848,22.98 13.664,0 31.504,-3.71 43.984,-8.35 v 55.39 c -11.609,1.98 -29.488,4.29 -43.047,4.29 -64.922,0 -111.211,-31.72 -111.211,-79.65 v -0.79 c 0,-52.39 41.274,-67.12 105.285,-80.71 53.118,-11.35 58.125,-18.87 58.125,-33.6 v -0.74 c 0,-15.49 -17.265,-24.89 -45.847,-24.89 -36.321,0 -60.371,12.45 -88.965,32.08 l -41.313,-41.17 c 38.125,-28.3 80.793,-42.24 128.899,-42.24 68.566,0 116.652,29.45 116.652,81.89 v 0.73 c 0,46.05 -36.34,65.3 -100.754,79.27" /><path
         id="path28"
         style="fill:#231f20;fill-opacity:1;fill-rule:nonzero;stroke:none"
         d="m 523.727,2615.06 c -71.27,0 -121.086,-50.93 -121.086,-112.7 v -0.82 c 0,-66.25 54.367,-111.9 127.941,-111.9 2.098,0 8.934,0.25 11.043,0.3 v 49.4 c -1.727,-0.11 -8.32,-0.44 -10.156,-0.44 -31.074,0 -53.008,14.55 -59.883,42.43 h 168.945 c 0.403,5.66 0.91,9.29 0.91,15.41 v 0.71 c 0,61.46 -35.949,117.61 -117.714,117.61 m -53.028,-95.36 c 5.489,27.91 24.239,46.09 53.028,46.09 29.218,0 47.5,-18.61 51.621,-46.09 H 470.699" /><path
         id="path30"
         style="fill:#231f20;fill-opacity:1;fill-rule:nonzero;stroke:none"
         d="m 861.793,2508.25 c 0,58.58 -35.813,104.33 -111.602,104.33 -75.878,0 -111.691,-45.75 -111.691,-104.33 v -114.66 h 70.188 v 118.92 c 1.277,21.67 9.804,47.27 41.503,47.27 31.582,0 40.829,-25.6 42.071,-47.27 v -118.92 h 69.531 v 114.66" /><path
         id="path32"
         style="fill:#231f20;fill-opacity:1;fill-rule:nonzero;stroke:none"
         d="m 1018.6,2470.68 c -6.05,-31.64 -38.721,-36.41 -46.143,-36.78 -52.824,-2.81 -54.719,33.35 -36.953,44.35 23.914,14.79 83.326,6.51 83.326,6.51 0,-2.18 0.53,-7.57 -0.23,-14.08 m -42.666,143.16 c -3.079,0 -13.684,-0.06 -16.602,-0.14 v -52.4 c 13.523,-0.1 32.07,-2.42 40.313,-6.72 12.115,-6.42 18.395,-17.19 18.745,-31.73 -16.58,1.91 -35.327,3.22 -51.597,3.66 -66.32,1.74 -99.094,-20.24 -105.625,-55.34 -0.168,-0.65 -0.273,-1.3 -0.41,-1.99 -0.031,-0.21 -0.039,-0.44 -0.078,-0.65 -0.52,-3.38 -0.821,-6.89 -0.821,-10.59 v -0.79 c 0,-42.89 37.95,-66.36 84.032,-66.36 33.839,0 57.149,11 73.999,27.52 v -24.94 h 67.21 v 127.15 c 0,58.62 -33.38,93.32 -109.166,93.32" /><path
         id="path34"
         style="fill:#ffffff;fill-opacity:1;fill-rule:nonzero;stroke:none"
         d="m 1048.34,902.082 c -48.2,33.18 -106.344,59.34 -170.164,74.977 -15.778,3.722 -31.641,7.242 -48.031,9.613 -0.61,0.117 -1.305,0.129 -1.922,0.238 -23.285,-17.191 -44.715,-36.18 -64.039,-56.558 21.402,3.117 43.207,5.128 65.507,5.91 77.832,2.867 151.848,-9.891 218.649,-34.18" /><path
         id="path36"
         style="fill:#ffffff;fill-opacity:1;fill-rule:nonzero;stroke:none"
         d="m 744.313,746.441 c 30.277,22.391 63.421,42.368 99.16,59.258 88.105,41.582 180.337,59.141 267.377,55.34 -74.93,33.07 -160.909,50.481 -251.834,47.172 -44.797,-1.609 -88.075,-8.219 -129.11,-19.07 -20.414,-27.461 -37.316,-57 -50.152,-88.082 19.766,-19.43 41.324,-37.758 64.559,-54.618" /><path
         id="path38"
         style="fill:#ffffff;fill-opacity:1;fill-rule:nonzero;stroke:none"
         d="m 651.273,659.77 c 23.895,28.07 51.317,54.121 81.704,77.82 -21.004,15.051 -40.633,31.281 -58.883,48.402 -14.637,-40.043 -22.684,-82.39 -22.821,-126.222" /><path
         id="path40"
         style="fill:#ffffff;fill-opacity:1;fill-rule:nonzero;stroke:none"
         d="m 673.676,822.191 c 10.125,21 21.316,41.059 33.429,60.188 -25.82,-7.957 -50.753,-17.488 -74.457,-28.738 11.243,-14.332 23.407,-28.192 36.329,-41.621 1.543,3.421 3.078,6.8 4.699,10.171" /><path
         id="path42"
         style="fill:#ffffff;fill-opacity:1;fill-rule:nonzero;stroke:none"
         d="m 1182.53,477.859 c -1.08,0 -2.17,-0.039 -3.27,-0.039 -44.71,0 -77.13,28.602 -77.13,68.051 v 0.879 c 0,37.711 32.49,67.262 73.97,67.262 2.22,0 4.38,-0.09 6.43,-0.192 v 45.309 c -1.93,0.09 -3.92,0.09 -5.91,0.09 -81.22,0 -142.53,-48.668 -142.53,-113.348 v -0.84 c 0,-63.051 62.13,-112.492 141.48,-112.492 2.42,0 4.65,0.07 6.96,0.121 v 45.199" /><path
         id="path44"
         style="fill:#ffffff;fill-opacity:1;fill-rule:nonzero;stroke:none"
         d="m 361.18,572.82 c -47.942,10.231 -54.692,15.141 -54.692,30.289 v 0.7 c 0,11.183 12.293,20.07 35.657,20.07 11.925,0 27.5,-3.238 38.394,-7.297 v 48.348 c -10.137,1.73 -25.742,3.75 -37.574,3.75 -56.668,0 -97.074,-27.688 -97.074,-69.52 v -0.691 c 0,-45.727 36.023,-58.59 91.898,-70.449 46.363,-9.911 50.738,-16.469 50.738,-29.329 v -0.64 c 0,-13.531 -15.074,-21.731 -40.023,-21.731 -31.699,0 -52.695,10.871 -77.652,28 l -36.059,-35.941 c 33.277,-24.699 70.52,-36.859 112.512,-36.859 59.847,0 101.82,25.699 101.82,71.468 v 0.641 c 0,40.191 -31.719,57 -87.945,69.191" /><path
         id="path46"
         style="fill:#ffffff;fill-opacity:1;fill-rule:nonzero;stroke:none"
         d="m 547.234,635.672 c -62.207,0 -105.687,-44.461 -105.687,-98.383 v -0.719 c 0,-57.82 47.453,-97.66 111.672,-97.66 1.836,0 7.801,0.219 9.64,0.262 v 43.109 c -1.507,-0.09 -7.261,-0.379 -8.863,-0.379 -27.125,0 -46.269,12.7 -52.269,37.039 h 147.464 c 0.352,4.938 0.793,8.098 0.793,13.45 v 0.621 c 0,53.636 -31.375,102.66 -102.75,102.66 M 500.949,552.43 c 4.793,24.359 21.156,40.23 46.285,40.23 25.504,0 41.461,-16.238 45.063,-40.23 h -91.348" /><path
         id="path48"
         style="fill:#ffffff;fill-opacity:1;fill-rule:nonzero;stroke:none"
         d="m 842.324,542.441 c 0,51.129 -31.258,91.059 -97.414,91.059 -66.23,0 -97.488,-39.93 -97.488,-91.059 V 442.352 h 61.262 V 546.16 c 1.117,18.91 8.558,41.25 36.226,41.25 27.567,0 35.641,-22.34 36.723,-41.25 V 442.352 h 60.691 v 100.089" /><path
         id="path50"
         style="fill:#ffffff;fill-opacity:1;fill-rule:nonzero;stroke:none"
         d="m 979.195,509.641 c -5.277,-27.621 -33.797,-31.782 -40.277,-32.102 -46.105,-2.457 -47.762,29.109 -32.254,38.711 20.875,12.91 72.734,5.68 72.734,5.68 0,-1.899 0.461,-6.61 -0.203,-12.289 m -37.242,124.961 c -2.683,0 -11.941,-0.051 -14.488,-0.122 v -45.738 c 11.805,-0.082 27.992,-2.113 35.183,-5.863 10.582,-5.609 16.063,-15.008 16.368,-27.699 -14.473,1.672 -30.84,2.808 -45.039,3.191 -57.891,1.527 -86.497,-17.66 -92.2,-48.301 -0.144,-0.57 -0.238,-1.14 -0.355,-1.738 -0.027,-0.18 -0.035,-0.383 -0.07,-0.57 -0.454,-2.953 -0.715,-6.012 -0.715,-9.242 v -0.688 c 0,-37.441 33.125,-57.922 73.347,-57.922 29.539,0 49.883,9.602 64.598,24.02 v -21.77 h 58.658 v 110.992 c 0,51.168 -29.13,81.45 -95.287,81.45" /><path
         id="path52"
         style="fill:#18468b;fill-opacity:1;fill-rule:nonzero;stroke:none"
         d="m 878.441,4724.71 c -15.82,3.74 -31.718,7.27 -48.144,9.67 -0.625,0.08 -1.309,0.13 -1.934,0.22 -23.34,-17.24 -44.843,-36.26 -64.179,-56.71 21.425,3.16 43.3,5.14 65.644,5.96 78.02,2.85 152.207,-9.94 219.162,-34.28 -48.31,33.26 -106.584,59.48 -170.549,75.14 v 0" /><path
         id="path54"
         style="fill:#f68712;fill-opacity:1;fill-rule:nonzero;stroke:none"
         d="m 843.648,4552.95 c 88.309,41.69 180.772,59.3 268.012,55.45 -75.11,33.17 -161.305,50.62 -252.406,47.33 -44.934,-1.66 -88.313,-8.27 -129.395,-19.13 -20.488,-27.52 -37.437,-57.14 -50.312,-88.29 19.824,-19.49 41.433,-37.83 64.707,-54.76 30.34,22.45 63.543,42.47 99.394,59.4 v 0" /><path
         id="path56"
         style="fill:#fab96a;fill-opacity:1;fill-rule:nonzero;stroke:none"
         d="m 729.859,4636.6 c -34.179,-9.02 -66.804,-21 -97.519,-35.59 31.086,-39.63 68.574,-75.97 111.855,-107.46 h 0.059 c -23.274,16.94 -44.883,35.27 -64.707,54.76 12.875,31.14 29.824,60.74 50.312,88.29 v 0" /><path
         id="path58"
         style="fill:#fab96a;fill-opacity:1;fill-rule:nonzero;stroke:none"
         d="m 744.301,4493.55 c -23.281,16.89 -44.93,35.27 -64.754,54.76 -18.387,-44.49 -28.395,-92.17 -28.547,-141.61 26.934,31.65 58.215,60.82 93.301,86.85 v 0" /><path
         id="path60"
         style="fill:#18468b;fill-opacity:1;fill-rule:nonzero;stroke:none"
         d="m 1183.46,4224.52 c -1.08,-0.01 -2.16,-0.05 -3.27,-0.05 -44.82,0 -77.3,28.67 -77.3,68.18 v 0.9 c 0,37.8 32.58,67.4 74.11,67.4 2.25,0 4.37,-0.08 6.46,-0.2 v 45.41 c -1.93,0.07 -3.92,0.07 -5.92,0.07 -81.38,0 -142.84,-48.79 -142.84,-113.58 v -0.82 c 0,-63.2 62.3,-112.71 141.8,-112.71 2.42,0 4.64,0.05 6.96,0.12 v 45.28 0" /><path
         id="path62"
         style="fill:#18468b;fill-opacity:1;fill-rule:nonzero;stroke:none"
         d="m 360.531,4319.67 c -48.043,10.24 -54.801,15.17 -54.801,30.35 v 0.69 c 0,11.18 12.333,20.1 35.715,20.1 11.95,0 27.539,-3.24 38.496,-7.3 v 48.43 c -10.191,1.75 -25.816,3.77 -37.675,3.77 -56.774,0 -97.227,-27.74 -97.227,-69.69 v -0.62 c 0,-45.88 36.063,-58.73 92.066,-70.62 46.43,-9.9 50.825,-16.53 50.825,-29.38 v -0.65 c 0,-13.54 -15.102,-21.78 -40.11,-21.78 -31.765,0 -52.8,10.89 -77.8,28.06 l -36.157,-35.99 c 33.348,-24.75 70.684,-36.98 112.774,-36.98 59.945,0 102.023,25.76 102.023,71.62 v 0.66 c 0,40.27 -31.801,57.11 -88.129,69.33 v 0" /><path
         id="path64"
         style="fill:#18468b;fill-opacity:1;fill-rule:nonzero;stroke:none"
         d="m 546.949,4382.64 v 0 c -62.344,0 -105.894,-44.54 -105.894,-98.59 v -0.69 c 0,-57.96 47.527,-97.88 111.879,-97.88 1.847,0 7.836,0.23 9.679,0.3 v 43.16 c -1.535,-0.05 -7.3,-0.35 -8.894,-0.35 -27.199,0 -46.356,12.7 -52.391,37.09 h 147.789 c 0.344,4.98 0.754,8.16 0.754,13.47 v 0.67 c 0,53.71 -31.426,102.82 -102.922,102.82 z m -46.383,-83.41 c 4.786,24.37 21.192,40.31 46.383,40.31 25.531,0 41.547,-16.27 45.145,-40.31 h -91.528 v 0" /><path
         id="path66"
         style="fill:#18468b;fill-opacity:1;fill-rule:nonzero;stroke:none"
         d="m 842.574,4289.24 c 0,51.22 -31.32,91.23 -97.59,91.23 -66.343,0 -97.671,-40.01 -97.671,-91.23 v -100.26 h 61.39 v 103.94 c 1.117,18.98 8.547,41.38 36.281,41.38 27.637,0 35.696,-22.4 36.778,-41.38 v -103.94 h 60.812 v 100.26 0" /><path
         id="path68"
         style="fill:#18468b;fill-opacity:1;fill-rule:nonzero;stroke:none"
         d="m 979.703,4256.38 v 0 c -5.265,-27.7 -33.867,-31.86 -40.312,-32.18 -46.25,-2.45 -47.864,29.15 -32.325,38.79 20.887,12.92 72.832,5.66 72.832,5.66 0,-1.88 0.497,-6.58 -0.195,-12.27 z m -37.297,125.17 c -2.695,0 -11.98,-0.03 -14.511,-0.09 v -45.85 c 11.816,-0.1 28.027,-2.08 35.246,-5.9 10.613,-5.57 16.101,-14.98 16.367,-27.73 -14.473,1.7 -30.871,2.82 -45.09,3.21 -57.988,1.48 -86.629,-17.68 -92.422,-48.36 -0.098,-0.59 -0.215,-1.17 -0.293,-1.76 -0.039,-0.19 -0.066,-0.41 -0.098,-0.59 -0.468,-2.93 -0.73,-6.01 -0.73,-9.27 v -0.71 c 0,-37.51 33.191,-57.98 73.504,-57.98 29.609,0 49.973,9.57 64.746,24.05 v -21.83 h 58.735 v 111.21 c 0,51.26 -29.18,81.6 -95.454,81.6 v 0" /></g></g></svg>