<svg width="22" height="19" viewBox="0 0 22 19" fill="none" xmlns="http://www.w3.org/2000/svg">
<path d="M19.1242 5.00925C16.9067 3.09348 14.2318 1.58303 11.2957 0.680174C10.5698 0.465271 9.84 0.262032 9.08597 0.125134C9.05791 0.118378 9.02593 0.117687 8.99755 0.111393C7.92631 1.10398 6.9404 2.20038 6.05139 3.37697C7.036 3.197 8.03916 3.08089 9.06508 3.03574C12.6458 2.8702 16.0509 3.60683 19.1242 5.00925Z" />
<path d="M5.13719 13.9958C6.53011 12.703 8.05492 11.5495 9.69912 10.5743C13.7524 8.17342 17.9956 7.15959 22 7.37905C18.5528 5.46964 14.5972 4.46435 10.4142 4.65541C8.35326 4.74831 6.36223 5.12996 4.47439 5.75648C3.53523 7.34204 2.75764 9.04758 2.16711 10.8422C3.07646 11.9641 4.06825 13.0223 5.13719 13.9958Z"/>
<path d="M0.856812 19C1.95612 17.3793 3.21768 15.8751 4.61566 14.5068C3.64935 13.6378 2.74631 12.7007 1.90671 11.7121C1.23332 14.0241 0.863114 16.4692 0.856812 19Z"/>
<path d="M1.88752 9.62203C2.35333 8.40952 2.86818 7.25134 3.42544 6.14686C2.23758 6.60628 1.09052 7.15659 0 7.80615C0.517242 8.63366 1.07685 9.43392 1.67134 10.2093C1.74233 10.0118 1.81295 9.81667 1.88752 9.62203Z"/>
</svg>
