<svg width="18" height="15" viewBox="0 0 18 15" fill="none" xmlns="http://www.w3.org/2000/svg">
<path d="M15.187 3.88953C13.4261 2.36816 11.3018 1.16867 8.97018 0.451684C8.39374 0.281023 7.81419 0.119625 7.21539 0.0109103C7.1931 0.00554562 7.16771 0.00499654 7.14517 -1.43051e-06C6.29447 0.788239 5.51153 1.65892 4.80554 2.59329C5.58745 2.45037 6.38408 2.35816 7.1988 2.3223C10.0423 2.19085 12.7465 2.77583 15.187 3.88953Z" fill="white"/>
<path d="M4.07957 11.026C5.18573 9.99933 6.39662 9.08335 7.70233 8.30891C10.9212 6.40229 14.2908 5.59718 17.4708 5.77146C14.7333 4.25514 11.5921 3.45681 8.27018 3.60853C6.63355 3.68231 5.05241 3.98539 3.55322 4.48293C2.80741 5.74207 2.1899 7.09649 1.72095 8.52166C2.44309 9.41256 3.2307 10.2529 4.07957 11.026Z" fill="white"/>
<path d="M0.68042 15C1.55341 13.7129 2.55526 12.5184 3.66543 11.4318C2.89806 10.7417 2.18093 9.99751 1.51417 9.21248C0.979417 11.0485 0.685425 12.9902 0.68042 15Z" fill="white"/>
<path d="M1.49894 7.55268C1.86885 6.58979 2.2777 5.67005 2.72024 4.79295C1.77692 5.15779 0.866012 5.59481 0 6.11064C0.410757 6.76779 0.855161 7.4033 1.32726 8.01904C1.38363 7.86218 1.43971 7.70725 1.49894 7.55268Z" fill="white"/>
</svg>
